<?xml version="1.0" encoding="UTF-8"?>
<svg width="1554px" height="465px" viewBox="0 0 1554 465" version="1.1" xmlns="http://www.w3.org/2000/svg" xmlns:xlink="http://www.w3.org/1999/xlink">
    <!-- Generator: Sketch 52.6 (67491) - http://www.bohemiancoding.com/sketch -->
    <title>Group</title>
    <desc>Created with Sketch.</desc>
    <g id="Page-2" stroke="none" stroke-width="1" fill="none" fill-rule="evenodd">
        <g id="Group">
            <g id="f">
                <path d="M639.182764,231.814918 L609.280832,231.814918 L609.280832,344 L567.557207,344 L567.557207,231.814918 L546,231.814918 L546,195.850387 L567.557207,195.850387 L567.557207,181.856406 C567.557207,145.611995 590.041605,127 624.208618,127 C629.499125,127.044639 634.768977,127.670301 639.924517,128.865864 L639.924517,170.847807 C635.426944,169.03259 630.630626,168.08321 625.784844,168.049011 C621.35433,167.695121 616.991713,169.309314 613.844556,172.466985 C610.697399,175.624656 609.080769,180.009686 609.419911,184.468616 L609.419911,195.617154 L639.321842,195.617154 L639.182764,231.814918 Z M702,344 L659.812779,344 L659.812779,130.171969 L702,130.171969 L702,344 Z" id="Shape" fill="#231F20" fill-rule="nonzero"></path>
                <path d="M796.862739,187.006103 C829.243302,186.949805 858.464175,206.419501 870.881701,236.324503 C883.299226,266.229504 876.463973,300.670872 853.567423,323.567423 C830.670872,346.463973 796.229504,353.299226 766.324503,340.881701 C736.419501,328.464175 716.949805,299.243302 717.006103,266.862739 C716.741826,245.603526 725.070378,225.137767 740.104073,210.104073 C755.137767,195.070378 775.603526,186.741826 796.862739,187.006103 Z M796.862739,306.025435 C818.439343,306.025435 833.983778,288.114534 833.983778,266.862739 C834.453218,256.723671 830.7505,246.834588 823.737426,239.497159 C816.724352,232.159731 807.012662,228.01399 796.862739,228.024851 C775.846834,228.749861 759.184684,245.996737 759.184684,267.025143 C759.184684,288.05355 775.846834,305.300426 796.862739,306.025435 Z" id="Shape" fill="#231F20" fill-rule="nonzero"></path>
                <polygon id="Path" fill="#231F20" points="920.865613 190 948.135947 292.387428 975.40628 211.035963 967.947728 190.04654 1009.90209 190.04654 1045.84299 292.433968 1072.4607 190.04654 1116 190.04654 1070.17652 344 1026.17106 344 995.497757 259.576911 966.828945 343.95346 922.543788 343.95346 877 190"></polygon>
                <circle id="Oval" fill="#00EF8B" cx="232.5" cy="232.5" r="232.5"></circle>
                <rect id="Rectangle" fill="#FFFFFF" x="269" y="196" width="66" height="66"></rect>
                <path d="M203.574961,286 C203.574961,299.572376 192.572376,310.574961 179,310.574961 C165.427624,310.574961 154.425039,299.572376 154.425039,286 C154.425039,272.427624 165.427624,261.425039 179,261.425039 L203.574961,261.425039 L203.574961,196 L179,196 C129.294373,196 89,236.294373 89,286 C89,335.705627 129.294373,376 179,376 C228.705627,376 269,335.705627 269,286 L269,261.425039 L203.574961,261.425039 L203.574961,286 Z" id="Path" fill="#FFFFFF"></path>
                <path d="M293.202324,163.333333 L367,163.333333 L367,98 L293.202324,98 C243.406192,98.0510079 203.051231,138.230539 203,187.810198 L203,196 L268.572117,196 L268.572117,187.810198 C268.597748,174.284518 279.617564,163.333309 293.202324,163.333333 Z" id="Path" fill="#FFFFFF"></path>
                <polygon id="Path" fill="#16FF99" points="203 262 269 262 269 262 269 196 269 196 203 196"></polygon>
            </g>
            <text id="CLI" font-family="Avenir-Medium, Avenir" font-size="230" font-weight="400" letter-spacing="20" fill="#00EF8B">
                <tspan x="1189.385" y="346">CL</tspan>
                <tspan x="1510.675" y="346">I</tspan>
            </text>
            <text id="Your-favoruite-CLI-t" font-family="Avenir-Medium, Avenir" font-size="70" font-weight="400" letter-spacing="1.20000005" fill="#4A4A4A">
                <tspan x="558.079999" y="454">Your favoruite CLI too</tspan>
                <tspan x="1281.12" y="454" letter-spacing="20">l</tspan>
            </text>
        </g>
    </g>
</svg>